<?xml version="1.0" standalone="no"?>
<!DOCTYPE svg PUBLIC "-//W3C//DTD SVG 20010904//EN"
 "http://www.w3.org/TR/2001/REC-SVG-20010904/DTD/svg10.dtd">
<svg version="1.0" xmlns="http://www.w3.org/2000/svg"
 width="1229.000000pt" height="1280.000000pt" viewBox="0 0 1229.000000 1280.000000"
 preserveAspectRatio="xMidYMid meet">
<g transform="translate(0.000000,1280.000000) scale(0.100000,-0.100000)"
fill="#000000" stroke="none">
<path d="M6005 12795 c-5 -2 -86 -11 -180 -20 -93 -8 -224 -25 -290 -36 -1109
-188 -2072 -890 -2595 -1892 -543 -1040 -543 -2294 0 -3334 477 -913 1313
-1575 2313 -1832 438 -113 960 -141 1407 -75 1188 175 2207 918 2730 1989 248
508 363 1009 363 1585 0 272 -13 422 -58 665 -252 1367 -1291 2480 -2641 2830
-265 69 -592 113 -884 121 -85 2 -159 2 -165 -1z"/>
<path d="M9285 5523 c-687 -596 -1579 -998 -2490 -1122 -245 -33 -386 -43
-650 -43 -432 0 -811 49 -1223 157 -698 184 -1373 538 -1912 1004 -58 50 -111
91 -117 91 -7 0 -68 -39 -135 -86 -731 -514 -1362 -1204 -1827 -1999 -103
-176 -279 -524 -364 -720 -270 -626 -453 -1334 -521 -2015 -32 -320 -53 -695
-42 -754 l7 -36 6133 0 6134 0 6 23 c9 34 7 210 -4 327 -5 58 -14 177 -20 265
-45 655 -207 1365 -455 1995 -445 1128 -1173 2094 -2116 2805 -126 95 -284
206 -291 204 -2 0 -52 -43 -113 -96z"/>
</g>
</svg>
